<svg id="Calque_1" data-name="Calque 1" xmlns="http://www.w3.org/2000/svg" viewBox="0 0 1936.88 1936.88"><defs><style>.cls-1{fill:#d32f2f;}.cls-2{fill:#ffd740;}</style></defs><title>SGA-logo-site-md</title><circle class="cls-1" cx="968.44" cy="968.44" r="968.44"/><path class="cls-2" d="M1570.27,1577.36c.7-15.51-6.62-26.81-15.7-36.79-16.82-18.48-34.41-36.25-51.4-54.58-4.43-4.78-9-9.17-14.57-12.42-5.83-3.38-12-2.52-16.55,2.41-.45.49-.83,1-1.31,1.5-5.44,5.11-7,5-11.63-1-.4-.52-.66-1.16-1.06-1.68-5.77-7.45-5.82-7.49.89-14,5.22-5.06,10.3-10.25,15.72-15.13,7-6.32,11.19-15.06,17-22.44q18.91-23.9,37.2-48.3c10.65-14.16,19.06-29.8,28.33-44.88,4.34-7,8.59-14.14,12.92-21.19,1.63-2.66,3.48-3.57,6.48-1.5,2.83,2,5.71,3.88,8.58,5.8,3.37,2.25,3.25,4.51,1.27,7.5a64.52,64.52,0,0,0-4,6.88c-3.23,6.51-2.07,12.82,3.8,16.7,11.11,7.33,22.52,14.19,33.78,21.3,7.92,5,15.78,10.12,23.68,15.17,8.59,5.51,17.5,10.48,26,16.13,9.59,6.37,19.66,12,29.37,18.21,4.21,2.69,7.24,1.57,9.58-2.19,6.64-10.66,13.48-21.22,19.48-32.24,3.36-6.17,2.85-13.29.16-19.82-3.29-8-7-15.78-10.57-23.63-2-4.33,1.9-15.32,6.22-17.19,2.29-1,3.62.52,4.94,2.16q17.05,21.24,34.22,42.4c1.62,2,1.8,3.61.45,5.81q-12.12,19.65-24,39.4c-7.09,11.75-13.62,23.87-21.16,35.3-11.09,16.81-20,35-33,50.62-11,13.15-20.9,27.23-31.34,40.86-5.52,7.21-11.18,14.32-16.74,21.51-2,2.61-3.91,3.08-6.5.52a61.19,61.19,0,0,0-7.69-6.18c-3-2.09-3.45-4.25-.87-7a12,12,0,0,0,1.43-2c5.81-9.54,4.93-15-3.74-21.9-10.29-8.23-20.68-16.33-31-24.51q-29.64-23.44-59.26-46.91a126.11,126.11,0,0,0-11.84-8.85c-5.85-3.57-10.62-.58-11.07,6.4-.42,6.45,3.08,11.19,7,15.42,14,15.18,28.55,29.94,42.47,45.24,10.53,11.58,21.88,22.44,29.58,36.52,11.2,20.48,13.89,41.64,4.09,62.9-7.23,15.7-19.28,28-33.51,37.81-11.71,8.09-24.11,13.4-38.7,14.24-18.66,1.08-33.9-5.66-47.31-17.77-15.46-14-29.17-29.74-43.29-45-8.52-9.24-17.84-17.71-25.71-27.58a41,41,0,0,0-8.18-7.17c-3.76-2.73-7.71-2.51-11.38.45a35.42,35.42,0,0,0-2.85,2.77c-5.57,5.54-6.46,5.55-11.86.06-8.28-8.42-8.4-8.54.21-16.85,17-16.42,34.15-32.69,51.22-49.05,2.88-2.77,5.22-2.78,7.7.67a40.48,40.48,0,0,0,6.13,6.49c2.87,2.53,2.54,4.66-.15,7-1.25,1.07-2.32,2.36-3.5,3.51-5.4,5.28-4.63,12.28-.29,17.5,5.5,6.61,11.09,13.19,17.13,19.27,16.46,16.54,32,34,48,50.91,6.23,6.57,13.22,12.19,21.64,15.22a32.36,32.36,0,0,0,23-.37c12-4.55,20.42-12.76,27-23.51C1569.09,1590.11,1570.91,1583.66,1570.27,1577.36Zm-15.71-196.71c-3.57-.07-10,5.45-13.09,13.57-2.51,6.51,1.57,10.74,5.55,14.21,10.18,8.87,20.52,17.6,31.37,25.61,12.72,9.38,24.67,19.74,37.31,29.22,11.44,8.59,22.52,17.69,34,26.25,6.09,4.55,11,3.94,16.27-1.39a94.14,94.14,0,0,0,9.15-10.41c8.82-12.18,10.44-22-5.48-30.25-6.11-3.16-11.9-7-17.74-10.63q-21.06-13.23-42-26.63c-11.24-7.15-22.8-13.76-33.86-21.25C1570.42,1385.16,1564.7,1380.71,1554.56,1380.65Z" transform="translate(-43.81 -34.12)"/><path class="cls-2" d="M406.09,1566.53c.71-12.07,3.81-23.25,6.68-34.51,3.63-14.26,8.89-28.11,10.9-42.8.49-3.6-5.31-13.52-8.74-14.46-1.61-.44-2.82.26-4,1.36-9.38,8.84-18.91,17.52-28.15,26.5-9.39,9.13-9.45,16.61-.68,26.25,1.12,1.22,2.27,2.41,3.48,3.55,2,1.88,1.94,3.64,0,5.52-2.4,2.28-4.87,4.52-7,7-2.82,3.25-5.2,3.29-8.12,0-8.39-9.36-17-18.57-25.43-27.84s-16.49-18.56-25.16-27.41c-9.55-9.77-16.71-21.29-24.36-32.45-8.5-12.39-16.7-25-25-37.52q-3.84-5.77-7.58-11.61c-.43-.68-1-1.55-.93-2.23,1.07-6.74,7.53-7.57,11.87-10.59,3.19-2.23,5.15.86,6.56,3.27a53.35,53.35,0,0,0,6.7,9.2c3.11,3.38,6.49,3.77,9.9.61a58.68,58.68,0,0,0,7.22-7.49c5.83-7.8,11.26-15.92,17.16-23.67,2.21-2.9,2.22-5,.21-8q-11.51-16.76-22.67-33.75c-2-3-4.05-3.09-7.47-2.17-8.85,2.37-17.33,5.89-26.15,8.25-14.65,3.9-16.58,8.68-8.43,21.64.18.28.4.53.57.82,4.74,7.74,4.53,8.6-3.3,13.45-8.41,5.21-8.31,5.15-14-3.37-10.73-16.12-21.59-32.15-32.38-48.22-3.44-5.12-3-7.24,2.15-10.45,2.37-1.48,4.65-3.1,6.95-4.69,2.12-1.46,3.78-1.39,5.4,1,7,10.08,13.77,12.68,25.27,9.66,17.16-4.51,33.86-10.52,50.74-16,12.91-4.17,26-7.7,39-11.77,13.89-4.36,27.69-9,41.54-13.56,5.29-1.72,10.53-3.71,15.93-4.91,4.39-1,7.3-3.35,9.79-6.88,3.35-4.77,4.7-4.7,7.85,0,6.26,9.33,12.38,18.75,18.79,28,2.57,3.71,1.92,6.75-.56,10-11.91,15.43-23.89,30.82-35.69,46.34-11.18,14.71-21.95,29.74-33.31,44.31-11.58,14.85-23.29,29.59-34.15,45-3.24,4.61-4.4,9.71-4.63,15.43-.26,6.49,9.19,18.62,17.53,20.14,5,.92,8.58-2.86,12-5.89,6.82-6,13.5-12.15,20.13-18.36q34.56-32.34,69.06-64.77c.6-.56,1.21-1.13,1.79-1.71,9.77-9.63,9.84-16,.29-25.75-4.77-4.88-4.79-4.9,0-9.6,10.57-10.29,8.37-9.63,18.76,0,15.14,14.06,30.54,27.88,44.59,43.08,12.34,13.35,24.69,26.91,31.74,44.08s6.3,34.23-3.06,50.69a59.14,59.14,0,0,1-25.69,24c-11.94,5.94-24.58,6.5-37.28,2a35.49,35.49,0,0,0-5.15-1.66c-2.23-.42-3.77.37-4.16,3-2.2,14.93-7.52,29.09-10.55,43.8-1.93,9.36-4.92,18.59-5,28.25A38.47,38.47,0,0,0,455,1612c4.2,5.9,3.92,7.21-1.39,12-8.45,7.6-8.71,7.84-16.56-.78-11-12.07-22.32-24-28.09-39.92C406.9,1577.65,406.83,1571.91,406.09,1566.53ZM465.42,1483a46.28,46.28,0,0,0,6.81-.88c13.33-3.7,22.75-12.51,30.45-23.75,6.55-9.58,7.73-19.42,3-30.08a66.51,66.51,0,0,0-12.53-18.21c-5.1-5.49-5.76-5.69-11.16-.57-6.94,6.6-14,13-21,19.54-9.78,9.12-19.5,18.31-29.28,27.43-2,1.86-2.11,3.48-.09,5.44,3.8,3.68,7.24,7.78,11.24,11.21C449.26,1478.66,456.45,1482.92,465.42,1483Zm-92.26-173.42c.07-1.3-.72-1.7-1.84-1.8a11.7,11.7,0,0,0-4.76,1c-13.38,4.37-26.76,8.71-40.19,12.9-4.36,1.36-5.47,3.51-2.89,7.35,4.22,6.3,8.58,12.51,13,18.7,3.4,4.77,4.22,4.71,7.76.1,7.44-9.68,14.95-19.31,22.37-29C368.88,1315.81,371,1312.65,373.16,1309.55Z" transform="translate(-43.81 -34.12)"/><path class="cls-2" d="M587.27,1505.67c24.74-.14,45.5,9.71,63.54,26.25a169.21,169.21,0,0,1,25.84,30.7c1.85,2.74,3.91,3.92,7.06,2.68a4.9,4.9,0,0,1,4.25.27c16.06,8,32,16.18,48.26,23.86,18,8.51,35.71,17.6,53.79,25.93,7.43,3.42,14.88,7,22.15,10.87,3.5,1.86,4.14,4.22,2.66,7.76-5,11.94-9.9,23.89-14.69,35.9-2.81,7-4.1,7.63-10.43,3.4-2.49-1.65-7-.59-7.16-5.54-.15-3.39,1.46-6,2.5-9,4.25-12.12,2.21-17.38-9.51-22.69-11.38-5.16-22.48-10.84-33.61-16.5-7.19-3.66-8.56-2.81-11.86,4.43-6.47,14.17-13.16,28.25-20.18,42.15-1.79,3.53-1.2,4.8,1.94,6.47a348.5,348.5,0,0,0,31.87,15.54c7.4,3,11.4,1.69,16-5,6.2-9,6.27-8.94,16.09-3.87,3.77,1.94,4.38,4.23,2.53,8-8.26,17-16.59,33.94-24.08,51.29-2.08,4.84-4.18,5.54-8.86,3.1-2.18-1.14-4.14-2.61-6.51-3.47-2.59-.94-3.14-3.27-2.39-5.79a36.94,36.94,0,0,1,1.68-3.62c3.31-7.84,2-13.56-5.19-17.65-10.07-5.69-20.9-9.72-30.87-15.56-3.76-2.2-6.06-.8-8,3.37-6.14,13.56-12.79,26.88-19.15,40.34a70.12,70.12,0,0,0-2.9,7.93c-.77,2.32.34,3.73,2.34,4.82,14.18,7.72,28.79,14.56,43.46,21.23,7.05,3.2,13.9,1.5,19.46-4.18,3.35-3.43,7-6.56,9.62-10.68,1.9-3,4.48-3.33,7.72-1.83,10.86,5,10.83,4.91,5.07,15.2q-9.91,17.75-19.61,35.63c-1.54,2.85-3.23,3.07-6,1.71-12.38-6.09-24.86-12-37.27-18q-30.23-14.67-60.4-29.43c-13.15-6.42-26.29-12.91-39.47-19.28a3.46,3.46,0,0,1-2.12-4,14.22,14.22,0,0,1,1.28-4.25c7.18-14.16,5.58-12,17.3-5.81,7.59,4,17.3,3.34,21.83-5.77,4.29-8.61,8.22-17.39,12.5-26,5.7-11.43,11.08-23,16.54-34.56,5.86-12.42,11.62-24.89,17.5-37.31,3.8-8,8.69-15.6,10.27-24.58a10.12,10.12,0,0,0,.37-3.42c-.44-2.25-.69-5-3.25-5.76-2.31-.69-3.43,1.7-4.55,3.18-5.89,7.74-11.63,15.61-17.44,23.42-1.48,2-3,4-4.6,5.85-2,2.4-4.21,3-6.74.58a18,18,0,0,0-3.23-2.26c-6-3.73-6.23-5.32-3.64-11.74,8.7-21.51,8.31-43.75-8.68-59.89-13.67-13-29.79-17-47.88-11.6-19.37,5.75-33.88,18.37-46.41,33.82-9.49,11.7-17.08,24.54-21.56,38.9-4,12.72-5.35,25.77-2.63,39.25,3.21,15.94,13.17,25.89,26.5,33.2,3.12,1.72,6.75,2.53,10.19,3.59,2,.61,3.06-1.11,4-2.35,8.3-10.89,17.09-21.4,24.53-32.93,2.66-4.13,1.21-11.69-3.14-16a115.8,115.8,0,0,0-10.42-9.15c-2.92-2.24-3.1-4.41-1-7.16,1.6-2.11,3.27-4.17,4.71-6.38,3-4.56,4.13-5,8.54-1.62C603,1624.82,620,1638,637.17,1651.14c4.58,3.5,9.28,6.85,14,10.21,2.64,1.89,3.28,3.87,1,6.6s-4.34,5.83-6.59,8.68c-1.66,2.11-3.42,2.47-6,.89-10-6.18-12.82-5.72-20,3.66C612,1691,604.69,1701,597.44,1711c-6.64,9.2-8.29,9.9-19.45,7-15.4-4.07-31-8-44.52-16.75-21.54-13.81-40.13-30.36-48.69-56-3.76-11.27-5.67-22.72-4.27-34.27a116.35,116.35,0,0,1,10.42-37.12c7.76-16,17.66-30.24,30.6-42.37a91.4,91.4,0,0,1,42.79-23.11A90.33,90.33,0,0,1,587.27,1505.67Z" transform="translate(-43.81 -34.12)"/><path class="cls-2" d="M1608.26,464.64c-5.09.12-10.12.3-14.82-1.27-4-1.31-5.39.53-5.44,3.73-.14,8.68-1.93,17.12-3.1,25.65-1.57,11.49-2.74,23-4.39,34.51-1.89,13,.57,24.76,9.25,34.89,5.3,6.19,5.26,6.23-.11,12.14-7.78,8.54-7.72,8.46-16.54.88-8-6.88-15.84-13.9-22.7-22-11-13-15-27.9-13.6-44.84,1-12.27,2.89-24.39,5.08-36.4,1.59-8.68,2.75-17.31,3.59-26.05.66-6.89-3.38-10.8-7.92-14.5-2.13-1.74-4.37-1.1-6.1,1-9.16,10.86-18.58,21.51-27.32,32.69-5.35,6.85-4.27,13.35,1.89,19.54,2.22,2.23,4.46,4.44,6.76,6.58,2.12,2,2.36,3.79.13,5.88-1.94,1.8-3.72,3.78-5.54,5.7-4.88,5.17-5.05,5.39-10.58.67-8.9-7.61-17.55-15.51-26.28-23.31-12.18-10.89-24.28-21.87-36.56-32.64-3.36-2.95-3.29-5.47-.11-8.11S1438,432,1442,430.9c4.71-1.31,6.35,4,9.6,5.92,9.56,5.77,13,5.59,20.66-2.42,12.69-13.26,24.2-27.58,36.18-41.47,8.42-9.76,17.08-19.32,25.48-29.1S1551,345,1558.14,334.4c3.72-5.51,3.24-10-1.2-14.82-2.45-2.66-4.58-5.6-7.61-7.72-1.88-1.33-2.28-3.07-.45-5.05,2.58-2.78,5.08-5.65,7.46-8.6s4.49-2.7,7.17-.59c11.67,9.13,23.18,18.49,35.15,27.2a294,294,0,0,1,39.54,34.37c8.94,9.34,16.63,19.51,21.2,32,7.83,21.4-2,47.53-16.92,60.24C1632.24,460.15,1621.54,465.48,1608.26,464.64Zm17.14-75.13c-.09-.61-.25-1.59-.36-2.58-1.48-13.32-10.51-21.79-19.4-30.13-5-4.69-6.06-4.08-10.49,1.35-5.21,6.39-10.63,12.61-16,18.85q-14.22,16.5-28.51,32.94c-2,2.26-1.36,4.19.56,6.08a68.61,68.61,0,0,0,17,12.56c7.58,3.86,15.16,6.45,24,3.15,8.34-3.11,14.81-8.44,20.54-14.84C1619.6,409.24,1624.24,400.36,1625.4,389.51Z" transform="translate(-43.81 -34.12)"/><path class="cls-2" d="M396,494.63H471c1.15,0,2.31,0,3.46,0s2.3-.46,2.65-1.8-.44-2.18-1.41-2.91c-22-16.47-42.41-35-64-52.08a38.3,38.3,0,0,0-11.29-6c-4.4-1.53-7.7.86-10.58,3.65a92,92,0,0,0-7.17,8.21c-2.24,2.75-4.28,3.33-7.51,1.1-12.17-8.38-12.31-10.18-2.93-21.35,11.56-13.79,22.67-28,34-41.93,5.79-7.11,5.9-7.12,12.32-2,8.8,7.07,9,6.83,2.88,16-.83,1.24-1.7,2.44-2.58,3.64-3.31,4.55-3.3,9.18.85,12.89,8.36,7.47,16.93,14.69,25.57,21.83,16.78,13.84,33.67,27.52,50.49,41.31q25.64,21,51.21,42.06c2.3,1.89,4.5,3.88,6.74,5.84a3.81,3.81,0,0,1,.48,5.75c-3,3.72-6.29,7.24-9.44,10.85-1.44,1.66-3.3,1.95-5.36,1.95-20.75-.06-41.52.57-62.24-.23-40.48-1.55-81-.17-121.44-.73-1.7,0-4-.75-4.67,1.6-.6,2.13,1.81,2.46,3,3.46,22.24,19.14,45.16,37.44,67.9,56,5.24,4.27,10.26,8.8,15.75,12.75,7.59,5.47,16.37,4.25,22.09-3.21,5.51-7.2,5.87-7.35,13-1.72,8.07,6.38,10.76,5.69,2.47,15.92Q457.07,648,438.94,670.59c-1.69,2.1-3.6,2.87-5.92.86-.74-.65-1.61-1.15-2.39-1.76-9.72-7.65-9.72-7.66-3.33-18,2.6-4.2,2.85-8.08-.37-12.34-5.59-7.4-13.34-12.32-20.16-18.23-15.2-13.16-30.95-25.68-46.49-38.44s-30.87-25.24-46.27-37.9c-3.05-2.51-6.13-3-9.5-.82-1.1.72-2.19,1.45-3.24,2.23-3.26,2.44-5.28,8.19-9.12,7.61-4.84-.73-8-6-11.93-9.19-2-1.61-2.09-3.53-.38-5.64q14.63-18.13,29.16-36.34c.82-1,1.66-2.06,2.39-3.16a10.24,10.24,0,0,1,9.48-5C345.89,494.72,370.92,494.62,396,494.63Z" transform="translate(-43.81 -34.12)"/><path class="cls-2" d="M1233.69,631.48c.23,19.37-3.06,38.22-8.48,56.77-8.56,29.24-22,56-39.12,81-6.83,10-13.76,19.81-21.92,28.71-1.05,1.15-2.11,3.16-4,2.28-2-1-.43-2.85-.4-4.38.24-11,1.07-21.94-.41-32.88-.81-5.94-.69-12-.78-17.89-.23-14.34-2.17-28.48-3.58-42.67-1.27-12.68-3.4-25.27-5.36-37.86q-1.89-12.24-4.42-24.36c-1.68-8.09-3.57-16.16-5.71-24.14-1.11-4.12-1.1-8.47-3-12.47-1.06-2.19.07-4.11,3.18-4,7.41.28,14.1,3.25,20.75,6a123.28,123.28,0,0,1,40.43,27,10.23,10.23,0,0,0,1.45,1.35c1.07.71,2.29,2.08,3.48,1.3,1.55-1,.57-2.69,0-4-6.39-14.48-13.8-28.41-24.91-39.75-10.25-10.48-22.62-16.93-37.67-16.78a6.62,6.62,0,0,0-2.45.11c-11.08,5-18.39-2-25.74-8.41-10.36-9-15.87-20.93-16.8-34.42a32.44,32.44,0,0,1,17.49-31.51c11.53-6.11,23.78-7.2,35.9-5.34,12.47,1.91,23.21,8.8,32.56,17.57,17.1,16,28.45,35.81,37.2,57.45,5.76,14.22,9.44,29,12.17,44C1234.54,619.68,1233.69,625.66,1233.69,631.48Z" transform="translate(-43.81 -34.12)"/><path class="cls-2" d="M1458.55,301c-.33,18-4.76,34.92-12.16,51.32a111.26,111.26,0,0,1-36.76,45.18,87.7,87.7,0,0,1-40.17,16.27c-11.71,1.61-23.33,1.55-34.72-1.14-20.9-4.95-39.35-14.82-54.12-30.79-12.83-13.86-20.23-30.52-22.63-49.35-4.26-33.44,6.34-62.64,26.37-88.48a94.51,94.51,0,0,1,35.41-27.88c14.84-6.9,30.07-10.39,46.14-9.23A108.11,108.11,0,0,1,1418.77,225a84.41,84.41,0,0,1,28.72,32.1,93.72,93.72,0,0,1,9.11,25.64A105.42,105.42,0,0,1,1458.55,301Zm-45.27-13.63c-.25-8.16-.06-16.2-2.1-24.28-5.08-20.17-20.15-33.11-40.16-34.45s-33,10.67-43.8,25.18c-10.11,13.6-16.26,29.43-20.54,46-4.68,18.07-6.32,36.2-2.52,54.68,3,14.53,9.57,26.43,22.9,33.63,9.78,5.29,20.29,7,30.85,3.82,11.39-3.43,20.18-11.37,27.09-20.8C1403.18,346.26,1413.45,318.54,1413.28,287.33Z" transform="translate(-43.81 -34.12)"/><path class="cls-2" d="M1726.36,536.76c27.6.28,51.28,10.12,70,30.74a99.33,99.33,0,0,1,23.79,47.38c1.89,9.07,3.87,18.08,5,27.3a12.17,12.17,0,0,0,5.49,9.07,12,12,0,0,1,4.51,5.75c2.39,5.58,2.07,7.41-3.49,9.41-5.13,1.84-9.85,4.51-14.75,6.81-10.58,4.93-21.17,9.83-31.63,15-3.53,1.75-5.34.86-7.07-2.41-5.28-10-5.46-10.1,2.7-17.8,6.55-6.19,12.34-12.86,16.07-21.23,7.08-15.92,5.23-30.92-4.07-45.32-13.13-20.33-32.62-24.18-54.72-22.26-22.65,2-42.4,11.17-60.34,24.48-15.47,11.46-27.33,26.08-31.08,45.7-3.47,18.11,2.58,33.29,16.05,45.53a3.84,3.84,0,0,0,4.86.79c10.78-5.28,21.66-10.33,32.55-15.37,9.4-4.36,11.74-9.19,8.57-19.05a99,99,0,0,0-5.11-12.34c-1.35-2.82-1-4.75,1.78-6.15,3.24-1.61,6.4-3.43,9.74-4.75,3-1.18,5.21-.26,6.68,3.06,5.43,12.26,11,24.45,16.67,36.62,5.9,12.78,11.77,25.56,17.9,38.22,1.78,3.67.66,5.58-2.54,7.11-2.66,1.27-5.25,2.75-8,3.88-3,1.25-5.62,1.2-7.35-2.46-3.79-8-8.38-9.89-16.33-6.41-8.28,3.63-16.42,7.58-24.6,11.43-5.66,2.66-11.33,5.32-16.93,8.12-3.06,1.53-5.66,1-8.25-1-21.73-16.65-39.3-36.57-49-62.88-4.8-13-8.2-26.47-7.59-40.2a82.84,82.84,0,0,1,18.77-49.78,128.88,128.88,0,0,1,48.38-36.7C1696.91,540.92,1711.05,536.47,1726.36,536.76Z" transform="translate(-43.81 -34.12)"/><path class="cls-2" d="M342.52,838.65c-9.66,1.27-21.35,2.79-33,4.34-5.6.74-7.3,4.81-8.26,9.72-1.72,8.74-3,17.56-5.35,26.19-1.29,4.78-1.73,9.78-2.54,14.69-.37,2.31.76,3.85,2.63,4.9,11.29,6.39,22.4,13.15,34.36,18.18,7.62,3.21,11.44,1,13.39-7,.85-3.51,2.33-6.8,2.52-10.59.21-4.38,3.56-6.2,7.81-4.95,1.88.55,3.58,1.53,5.64,1.67,6.62.45,7.94,2.33,6.59,9q-6.09,30-12.19,59.94c-.13.65-.3,1.3-.38,1.95-1,8-2.26,9.09-10.07,7.75a46.76,46.76,0,0,1-8-2.22c-2.4-.89-3-3-2.37-5.35,2.85-10.8-1.61-18.28-10.29-24.09-10.15-6.81-21.12-12.13-31.75-18.06-13.78-7.69-27.73-15.08-41.7-22.44-11.51-6.06-22.67-12.75-34.33-18.55-12.19-6.07-23.94-13.07-35.75-19.88a18,18,0,0,0-12.83-2c-4.91.9-6-.31-5.06-5.17,1.92-10.58,3.85-21.15,5.46-31.78,1.4-9.27,3.08-10.49,12.11-11.27,10.74-.92,21.37-2.9,32.07-4.27,8-1,16.05-1.3,23.91-2.82,10.95-2.11,22.12-2.18,33.07-4.32,8.51-1.66,17.2-2.38,25.82-3.46,11.87-1.49,23.73-3.07,35.62-4.34,7.83-.84,15.57-1.91,23.3-3.49,8.71-1.78,14.53-6.64,17.62-14.78,1.39-3.67,3-5.13,6.94-3.71,2.59.92,5.51.83,8.24,1.38,4.73.94,5.71,3.08,4.72,7.79-2.52,12-4.74,24-7.12,36.08-1.76,8.93-3.61,17.84-5.38,26.78-1.25,6.31-2.55,12.62-3.59,19-.83,5.07-2.91,6.66-7.66,5.21a28.81,28.81,0,0,0-6.78-1.15c-5.39-.33-7-2.45-5.88-7.86.62-3.09,1.76-6,1.88-9.26C356.21,840.8,354.17,838.64,342.52,838.65Zm-69.73,9c-1.49.08-2.15.07-2.8.15l-48.15,6c-1.33.16-2.74.17-3.16,1.78s.94,1.93,1.91,2.46c15.1,8.31,30.16,16.71,45.35,24.85,3.75,2,5.19-1.09,5.42-4.09.7-9,3.77-17.43,4.66-26.38C276.45,848.21,275.57,847.35,272.79,847.69Z" transform="translate(-43.81 -34.12)"/><path class="cls-2" d="M953.22,142.52c17.9.25,31.74,2.33,45.29,6.79,5.71,1.88,11.68,3.23,17.51-.87a11.41,11.41,0,0,1,8.58-1.36c2.63.56,3.9,2.75,3.94,5.62.29,17.46,1.32,34.9,1.16,52.38,0,4.57-1.87,6.4-6.1,6.42-2,0-4-.09-5.92.05-3.32.25-5.11-1.18-6.1-4.43a99,99,0,0,0-7.56-18.85c-6.68-12.18-16.57-20.32-29.7-23.32-17.8-4.07-34.18-.23-46.89,13.73-7.6,8.36-12.41,18.52-15.83,29.5a89.78,89.78,0,0,0-4.18,23.37c-.45,12.82-.24,25.6,2.77,38.38,2.72,11.53,6.7,22.17,13.13,31.95,6.9,10.48,15.69,19,27.51,23.21,9.58,3.42,19.62,3.08,29.44.17a28.07,28.07,0,0,0,4.61-1.65c2.87-1.44,5.71-3.24,5.17-7-1.56-10.95-.7-21.95-.74-32.92-.06-15.95-7.54-17.67-21.1-17.47-2.63,0-5.17.31-7.78-.39A4.21,4.21,0,0,1,957,262a111,111,0,0,1-.2-12,3.38,3.38,0,0,1,3.25-3.23c3.59-.4,7.18-.81,10.78-1,18.23-.77,36.47-1.14,54.72-1.37,5.71-.07,11.46-.6,17.21-.68,4.52-.06,6.7,2.13,6.6,6.69,0,1.5,0,3,0,4.5,0,7.6,0,7.6-7.23,8.69-7.52,1.13-11.22,5.59-10.35,14.24,1.26,12.65.39,25.29.79,37.92a10.56,10.56,0,0,0,0,3c2.77,8-2.59,10.89-8.16,13.79-14.66,7.64-30.05,13.73-46.21,16.41a110.93,110.93,0,0,1-44-1c-13.44-3.19-25.91-7.93-36.84-16.68-11.49-9.2-19.46-20.88-25.54-34.22-9.8-21.49-11.79-44.29-9.9-67.29a92,92,0,0,1,24.12-55.53c10.88-12,23.26-21.47,38.5-26.67C935,144.05,945.79,142,953.22,142.52Z" transform="translate(-43.81 -34.12)"/><path class="cls-2" d="M1705.4,928.5c-7.46.68-15.36-.6-23.23.79-3.1.54-3.8-2-4.34-4.8-2.07-10.65-1.6-21.5-2.74-32.23-2.47-23.07-4.94-46.16-6.79-69.29-1.32-16.54-2.61-33.07-4.25-49.58-.45-4.45.51-7,5.7-6.72,2.89.18,5.84-.65,8.78-.9,3.21-.26,5.2,1.25,5,4.59-.28,5.08,1.08,9.83,2.19,14.66a10.8,10.8,0,0,0,10.56,8.76c11.33.1,22.63.12,33.9-2,10.3-1.9,20.87-1.62,31.29-3,17.06-2.22,34.3-2.61,51.38-4.85,7.11-.93,14.45.25,21.29-3,4.29-2.06,6.8-5.07,6.84-10a57.19,57.19,0,0,0-.12-8.49c-.62-4.42,1.62-6.09,5.37-6.62,2.92-.41,5.86-.75,8.79-1,3.65-.33,5.35,1.25,5.56,5.15.33,6.12,1.73,12.21,1.66,18.3-.1,10,2,19.81,2.52,29.78.81,15.54,3,31,4.45,46.5,1.12,11.72,2.09,23.45,3.11,35.19a60.44,60.44,0,0,0,.65,7.43c1,4.53-.93,6.48-5.56,7.41-11.89,2.4-24,3-35.89,5.69-3,.68-6.56,1.68-9.34-1-1.24-1.2-1.82-13-.55-14.15,3.43-3.18,8-3.53,12.32-4.29,7.63-1.35,14.06-7.54,12.47-14.63s-1.06-13.87-1.78-20.76c-.88-8.4-2.62-16.72-2.68-25.2,0-3.95-1.25-4.93-5.45-4.31-9.23,1.36-18.6,1.76-27.91,2.57-7.51.66-15,1.42-22.53,2-3.72.28-4.81,2.45-4.47,5.73,1.16,10.89,2.51,21.74,3.13,32.7.56,10,6.93,14.35,17,13,2.86-.39,5.42,0,6.54,3,1.52,4.16,1.19,8.55.56,12.8-.33,2.17-2.49,2.77-4.66,2.88-17.53.82-34.92,3.27-52.39,4.82-1.8.16-3.62.13-5.43.18a4.22,4.22,0,0,1-1.47-.07c-6.46-2.24-2.66-8.41-4.51-12.49-1.11-2.46.73-4.71,3.7-5.35,2.72-.58,5.39-1.39,8.11-2,6.19-1.34,8.74-6.43,8.14-11.51-1.38-11.86-.85-23.87-3-35.66-.83-4.44-3.15-5.06-7-4.88-14.42.66-28.63,3.6-43.08,3.89a29.91,29.91,0,0,0-7.27,1.17,5.56,5.56,0,0,0-4.41,6.31c.71,8.94,1,17.94,2.36,26.78.85,5.62.41,11.24,1.33,16.87,1.58,9.64,5.7,17.69,18.32,19.37,3.73.49,7.37,1.62,11.07,2.34,2.69.51,3.92,2.25,4.33,4.76.37,2.29.71,4.59.91,6.9.29,3.25-1.56,4.78-4.45,5.6-5.84,1.67-11.79.46-17.68.81C1709.76,928.6,1707.78,928.5,1705.4,928.5Z" transform="translate(-43.81 -34.12)"/><path class="cls-2" d="M1183.92,285.41c1.29-12.3-6.59-13.18-16.49-14.83-9.37-1.56-18.82-2.55-28.24-3.82-3.6-.48-5.7.79-5.91,4.72a247.85,247.85,0,0,1-4.17,32c-1.12,6,.22,12.26-2.34,18.19-1.24,2.86,2.58,7.7,6,7.87,11.47.6,22.57,3.95,34.09,4.43,5.8.24,11.41,2.58,17.46.88,4.72-1.33,8.46-3.6,10.79-7.94,2.58-4.79,5.64-9.37,6.68-14.87a4.39,4.39,0,0,1,2.27-3.14c4.53-2.19,9.07-.53,13.19,1,3.59,1.36,2.16,5.24,1.65,8-2.11,11.23-4.56,22.4-6.75,33.62-2.48,12.69-2.47,13.19-15.12,11.86-13.17-1.38-26.37-2.85-39.39-5.47-3.69-.74-7.49-.9-11.23-1.39-19.94-2.61-39.89-5.2-59.82-7.9-9.73-1.32-19.44-2.88-29.16-4.25-7.28-1-8.26-2.54-6.06-9.86a26.58,26.58,0,0,0,1-3.35c1.33-8,1.33-8.06,9.21-6.14a37.32,37.32,0,0,0,12.27.64c5.32-.48,10.38-7.62,11.39-14.73,2.58-18.36,4.48-36.81,7.35-55.15,3.15-20.12,5-40.45,7.49-60.68.36-3,.89-5.91,1.46-8.84,2-10.51-3.66-18-14.34-18.71-7.2-.51-7.2-.51-7.05-7.78a4.13,4.13,0,0,0,0-.5c-.39-10.66,1.73-14.06,14.63-10.37,4.22,1.21,8.47.74,12.7,1.39,16,2.45,32.09,4.34,48.13,6.51,16.69,2.27,33.39,4.53,50,7,5.19.76,10.35,1.63,15.6,1.94,6,.36,7.22,1.36,6.8,7.12-1.06,14.21-1.56,28.47-3.63,42.61-.47,3.25-1.67,4.18-4.89,3.61-12.66-2.21-12.68-2.13-12.79-15.07-.11-12.27-2.77-15-14.61-16.6-14.11-1.86-28.19-4-42.25-6.28-3.21-.51-4.27.93-4.64,3.54-2.31,16.42-4.66,32.82-6.8,49.26-.88,6.78-.45,7.56,6.24,8.31,11.4,1.27,22.59,4.15,34.09,4.42,6.6.15,10.79-3.43,12.1-9.95.36-1.79.57-3.61.92-5.4.19-1,.26-2.17.86-2.78,4-4,8.37-.26,12.54-.21,2.69,0,4.65,2.31,4.25,5.65-.69,5.76-1.11,11.57-2,17.29-2.16,13.75-2.83,27.7-5.74,41.35-.8,3.76-2.12,5.46-6,4.12a6.37,6.37,0,0,0-1.47-.16C1183.86,295.57,1183.86,295.57,1183.92,285.41Z" transform="translate(-43.81 -34.12)"/><path class="cls-2" d="M1836.8,1074.53c-7.69.62-15.44-.78-23.12.86a3.28,3.28,0,0,1-4-2.81c-.55-4.29-.79-8.71,1.26-12.71,1-2,2.92-2.72,5.22-3.21,13.05-2.8,24.48-8.43,32.2-20.06,5.35-8,6.13-17,3.26-25.83-3.73-11.46-14.52-14.25-25.58-8.63-8.7,4.43-13.23,12.72-18.58,20.19-9.54,13.36-19.65,26.14-31.48,37.56-16.58,16-36.13,21.21-58.43,17.93-17.35-2.56-30.77-11.46-39.82-26.33-9.64-15.86-12.44-32.93-5.67-50.94,2.73-7.28,5.08-14.71,7.51-22.11,1-3,1-5.82-1.58-8.26-3-2.83-2.27-6.44-1.23-9.78s4-3.42,6.9-3.56q26-1.3,52.07-2.74c2.73-.14,4.52.61,4.36,3.83-.14,2.83.12,5.7-.27,8.48-.5,3.46-2,5.38-6.15,6.36-13,3.05-25.78,7.29-34.74,18.12-11.82,14.29-10.53,39.48,12.32,45.2,9.4,2.35,17.93-.4,25.42-6.28,10.41-8.18,17.15-19.54,24.74-30.1,9.41-13.11,19-26,33.8-33.36,9.9-4.94,20.15-7.2,31.32-5.65,13.08,1.83,24.76,6.14,33.82,16.29,12,13.48,15.57,29.53,13.76,47.15a93.5,93.5,0,0,1-8.39,29.52,7.63,7.63,0,0,0,.57,7.9c3.7,6,1,11-5.8,12.19C1852.57,1075.09,1844.67,1074,1836.8,1074.53Z" transform="translate(-43.81 -34.12)"/><path class="cls-2" d="M1059.27,1709.11v.5c0,11.79-1.69,13.56-13.49,13.77-3.15,0-5-1.94-5-5-.39-17.11-3.94-34-4.17-51.07,0-.33,0-.66,0-1,.15-2.61-2.51-5.89,1-7.7,3.68-1.91,8.11-3.23,11.86-1.19,5.63,3.07,11.15,2.06,16.8,1.12,15.5-2.6,31-5.08,46.44-8.12,14.6-2.89,29.33-5.12,43.93-8,7.15-1.41,14.35-3.36,21.72-3.69a9.65,9.65,0,0,0,6.67-2.9c3.09-3.33,6.76-4.54,11.08-5.63,4.75-1.19,6.86,0,8.16,5.78,3.75,16.92,8.2,33.65,12.6,50.39,1.06,4-.1,5.89-3.56,7.28-3.28,1.31-6.77,1.17-10.14,1.58-2.13.27-3.75-1.18-4.43-3.78a90.62,90.62,0,0,0-7.23-19.51c-2.53-4.86-5.88-7.58-12-7.73-10.69-.27-20.76,2.89-31.12,4.32-2.87.39-3,2.42-2.51,4.88,2.29,13,4.42,26.09,6.71,39.11,4.37,24.93,9.2,49.79,13,74.8,1,6.72,2.76,13.27,3.63,20,1.22,9.41,8.4,13.09,19.4,11.25a35,35,0,0,1,6.33-.81c4.22.07,5.79,3,6.57,11.64.33,3.73.79,7.48-4.49,8.31-11.64,1.83-23.31,3.57-34.87,5.85-12.85,2.54-25.87,4.15-38.61,7.33-4.57,1.15-9.43,1.06-14,2.46a2.9,2.9,0,0,1-1,.06c-4.24-.24-6.54-5.57-6.44-15.51,0-3.42,2.33-4.86,5.5-5.17,5.58-.56,11.11-1.15,15.36-5.63a9.46,9.46,0,0,0,2.86-6.58c.34-8.37-1-16.5-2.47-24.69-3.74-20.86-6.76-41.86-10.76-62.66-3.37-17.56-5.42-35.36-9.62-52.76-.57-2.34-1.5-3.88-4.42-3.29-7.38,1.5-14.84,2.6-22.21,4.19-14.26,3.08-16.28,5.58-17,20.26C1059.18,1704.11,1059.27,1706.62,1059.27,1709.11Z" transform="translate(-43.81 -34.12)"/><path class="cls-2" d="M401.26,695.81c4.86-.36,8.24-2.21,10.57-5.74a29.28,29.28,0,0,0,4-7.41c1.26-4.23,3.51-4.75,7-3.07,2.08,1,4.23,1.84,6.3,2.85,7.62,3.72,7.39,3.63,3.86,11.68-7.71,17.57-16.11,34.82-23.47,52.57-2.91,7-6.5,13.77-9.44,20.81-1.25,3-3.55,3.72-6.47,2.7a10.17,10.17,0,0,1-2.21-1.11c-3.26-2.21-8.1-2-10.22-5.63-2.34-4,2-7,2.78-10.58,1.89-8.43-1.88-14.47-11.94-19-18.52-8.39-36.91-17.06-55.41-25.5-21.06-9.61-42-19.53-63.34-28.45-10-4.2-15.71-3.75-20.72,7.55-3.08,6.95-3.3,6.84-10,3.75-2.39-1.1-4.79-2.18-7.22-3.19-3.45-1.43-3.67-4.17-2.38-7,7.86-17.17,16.16-34.15,23.66-51.49,3.69-8.5,7.69-16.84,11.37-25.33,1.39-3.2,3.3-3.84,6.22-2.5.74.34,1.48.7,2.2,1.09,3.43,1.91,8.32,2.28,10.12,5.73,2,3.8-2.23,7.11-3.46,10.73-2.08,6.17,1.29,13.57,7.91,17.64,6.91,4.26,14.5,7,21.79,10.44q23.63,11.07,47.31,22c17.4,8,34.82,16,52.3,23.87C395.36,694.54,398.68,695.07,401.26,695.81Z" transform="translate(-43.81 -34.12)"/><path class="cls-2" d="M1288.31,920c3.38.21,5.23,3.12,7.45,4.94,12.6,10.35,25,21,37.44,31.5a19.87,19.87,0,0,0,2.85,1.94c4.15,2.44,6.55,4.72,4.39,10.69-4.31,11.93-2.78,24.23,1.12,36.1,3.64,11,8,21.8,14.85,31.28,1.8,2.49.72,4.86-.35,7a97.41,97.41,0,0,0-9.28,29.25c-2.23,15.56-2.62,31.2,2.72,46.28,1.48,4.2.92,6.81-2.25,9.58a64.48,64.48,0,0,0-20.36,32.78,58,58,0,0,0-.58,29c1.28,5.24-3.46,5.84-6.28,7.2-14.6,7-27.76,15.82-36.87,29.71-5.11,7.79-9.26,16-8.79,25.83.23,4.82-1.3,5.88-6.08,4.71-13.69-3.35-27.27-2.33-41,0a212.42,212.42,0,0,0-27.2,6.31,6.69,6.69,0,0,1-2.42.34c-1.2-.11-3.05.76-3.34-1-.23-1.36,1.33-2,2.57-2.6,11.76-5.53,22.49-12.79,33.06-20.3,10.12-7.19,19-15.89,27.57-24.81,16.67-17.28,29.45-37.17,39.58-59,7.23-15.55,12.28-31.77,16.56-48.35,8.14-31.5,10.52-63.6,8.3-95.85-1.48-21.68-6.5-42.87-16.22-62.72a170.78,170.78,0,0,0-16.19-26.64C1288.93,922.42,1287.69,921.72,1288.31,920Z" transform="translate(-43.81 -34.12)"/><path class="cls-2" d="M977.57,1375.58c17.93.25,31.66,4.65,41.52,18,8,10.78,7.17,29.88-1.83,39.92-.44.5-.87,1-1.31,1.5-4.05,4.54-4.13,5.54.67,9s7.95,8,10.52,13c8,15.54,2.35,37-12.7,46.76-21,13.56-43.11,14.1-64.43,1.75-21.59-12.5-26-43.35-4.75-60.37,3.82-3.06,3.63-5.13.29-8.22a31.07,31.07,0,0,1-10.31-25.47c1-14.28,8.28-25,21.68-30.71C964.2,1377.6,971.6,1374.57,977.57,1375.58Zm-13.24,97a10.53,10.53,0,0,0,1.09,5c3.93,8.23,16.78,11.65,25.2,6.63,8-4.75,9.85-13.09,4.35-19.12a30.21,30.21,0,0,0-9.19-6.6C978.36,1454.87,964.31,1463.9,964.33,1472.6ZM992,1412.19c0-6.23-4.08-9.46-11.82-9.43-8.2,0-12.71,3.6-12.63,10,.08,5.32,8.19,14.52,12.7,14.41C985.12,1427.05,992.08,1418.18,992,1412.19Z" transform="translate(-43.81 -34.12)"/><path class="cls-2" d="M1130.45,1408c.09,11-3.06,19-9.52,25.48-2.48,2.49-2.5,4.15.07,6.47a71.83,71.83,0,0,1,8.83,9.35c12.48,16.09,7.05,40.78-8.69,51.4-15.19,10.25-31.74,13.32-49.7,8.57-11-2.91-20.66-7.57-27.18-17.35-9.36-14-9.62-32.66,3.06-45.56,7.32-7.46,7.21-7.4,1.1-15.37-12-15.66-8.19-39.68,9.59-50.08,17.08-10,35-10.45,52.37-2.32C1122.61,1384.32,1130.7,1394.76,1130.45,1408ZM1087,1483.62c.82,0,1.65,0,2.47,0,6,0,11.67-3.51,13.38-8.23,2-5.57,1.1-11.45-3.26-14.49-8.13-5.68-10.93-8.51-18.09-4.38a41,41,0,0,0-8.85,7.07,8.48,8.48,0,0,0-2.59,6.66C1070.28,1478.23,1077,1483.59,1087,1483.62Zm-12.87-73.68c0,5.79,7,14.3,12,14.54,4.09.19,12.48-9.51,12.46-14.41,0-6-4.83-10.09-12.07-10.16C1078.28,1399.83,1074.19,1403.15,1074.15,1409.94Z" transform="translate(-43.81 -34.12)"/><path class="cls-2" d="M1195.8,1491.84c0-3.33,0-6.66,0-10,0-3.09-1.61-4.17-4.37-3.94-14.77,1.2-29.58.36-44.37.78-3.91.11-5.93-1.49-5.66-5.59a3.72,3.72,0,0,0,0-1c-3.48-15.79,6.73-26.17,14.54-37.43,13-18.72,26.23-37.26,39.12-56.05,3.65-5.33,7.55-8.88,14.49-7.91,3.71.52,7.56.09,11.34,0s5.17,1.68,5.32,5.46c.89,22,1,43.91.93,65.88,0,6.84,0,6.84,6.45,5.85,8.77-1.34,11.08.6,11.21,9.56.07,4.67,0,9.33,0,14,0,4.27-1.59,6.27-6.21,6.18-11.76-.23-10.29-1.27-10.36,10.76,0,4.33-.06,8.66,0,13,0,2.92-1.25,4.19-4.15,4.28-7.88.27-15.76-.54-23.64.62-2.87.43-4.88-1.49-4.72-5,.15-3.16,0-6.33,0-9.5Zm-.11-53.68h-.15c0-1.49,0-3,0-4.48s.09-2.88-1.35-3.46-2.26.94-3.24,1.73c-2.91,2.34-3.87,6-6.11,8.9-1.81,2.31-5.51,4.41-3.6,8s5.67,1.58,8.59,1.67c6.16.21,6.82-.83,5.9-6.89A37,37,0,0,1,1195.69,1438.16Z" transform="translate(-43.81 -34.12)"/><path class="cls-2" d="M867.61,1490.23q0-30.18,0-60.36c0-3.09-.73-4.42-4.39-3.84-7.26,1.16-14.62,1.72-22,2.33-2.84.24-4.15-1.62-4.23-4.36-.19-6.3.29-12.61-.95-18.88-.62-3.17,1.17-4.4,4.29-4.47a55.51,55.51,0,0,0,18.65-4c6.22-2.38,9.83-7.21,11.42-13.44.91-3.58,2.95-5.14,6.18-5.24,5.75-.18,11.51-.08,17.27-.07,2.7,0,4.33,1.22,4.5,4.13.08,1.49.57,3,.52,4.43-.68,18,.5,35.93,1.3,53.83,1,22.12.35,44.23.92,66.33.18,7,.05,7.23-6.72,7-6.6-.25-13.1.77-19.66.91-4.23.08-6.36-1.63-6.15-6.27.27-6,.07-12,.07-18Z" transform="translate(-43.81 -34.12)"/><path class="cls-2" d="M1367.74,1114c-.55-10.36,1.55-19.43,7.07-27.56,2.18-3.21,2.6-6.66.59-9.86-5.51-8.78-6.18-18.85-7.11-28.63-.59-6.23.06-13.09,7.48-16.4,3.1-1.39,5.68-3.93,8.67-5.65,3.89-2.25,6.36-.88,5.65,3.61-1.67,10.52-.57,20.86,1,31.21.81,5.37,1.48,10.87,4,15.78,2,3.9.23,7.52-.24,11.21-1.8,14.13-3.92,28.22-5.61,42.36-1.08,9-3.28,17.94-3.5,27.11,0,1.31.37,3.86-1.89,4.06-2,.17-3.18-1.69-4-3.31-2.24-4.61-4.8-9.15-6.33-14C1370.37,1134,1366.72,1124.12,1367.74,1114Z" transform="translate(-43.81 -34.12)"/><path class="cls-2" d="M1393.15,949c.3,10.14-.7,22.94,1,35.68.38,2.94,1.34,5.78,1.11,8.84s-1,4.36-4.25,3.45c-4.09-1.12-8.38-1.68-12.43-2.8-6.62-1.82-11-6.5-13.6-13.21-5-12.73-.9-24.19,4.48-35.3,5-10.39,9.8-21,17.14-30.06a10.77,10.77,0,0,1,.88-1.19c1.28-1.2,2.09-3.65,4.07-3.13,2.55.67,1.59,3.31,1.6,5.15C1393.19,926.4,1393.15,936.38,1393.15,949Z" transform="translate(-43.81 -34.12)"/><path class="cls-2" d="M599.78,1050.67c-.35,5.72.21,13,1,20.28.27,2.56-.39,4.58-3.54,3.37-17.71-6.8-33.23-16.14-39.19-36-3.32-11.07-1.95-22,2.13-32.59,1.84-4.78,3.89-9.49,6-14.14a9.5,9.5,0,0,0-1.16-10.34c-8.4-10.65-17.21-20.85-28.27-29-11.94-8.76-31.57-13.17-45.54-2.78-2.48,1.85-5.72,2.62-7.59,5.38-.66,1-1.3,2.06-2.73,1.51s-1.73-1.91-1.69-3.29c.39-14.84,3.34-29.36,21.76-35.44,10.89-3.59,21.91-3.59,33.11-2.41a215.07,215.07,0,0,1,34.54,7c5.19,1.42,7.22-.33,6.3-5.92-2-12.09-7.47-21.93-18-28.92-11.6-7.74-24.17-9.29-37.49-7.91-1,.11-2,.25-2.53-1a2.09,2.09,0,0,1,.62-2.26,74.22,74.22,0,0,1,17.2-14.61,56.16,56.16,0,0,1,22.66-7.47,53.79,53.79,0,0,1,25,3.18c16.72,6.14,31.54,15.59,45.78,26.26,9.56,7.16,19.58,13.72,29.69,20.08,12.32,7.76,25.33,14.29,39.39,18.2a87,87,0,0,0,44.11,1.22c19.85-4.66,36.48-14.77,51.88-27.76,7.87-6.65,15.28-13.82,21.32-22,9.06-12.34,18-24.82,25.17-38.51A410.47,410.47,0,0,0,864.62,776c2.84-8.43,2.68-8,11.64-5.16,10.35,3.3,20.89,4.94,31.55.46,5-2.08,10.64-1.88,15.7-4,7.89-3.33,9.9-7.81,6.67-15.74a29.37,29.37,0,0,1-2.39-10.1c-.17-4.44-3.71-6.84-7.27-4.23-5.58,4.1-12.16,4.4-18.22,5.07-9.21,1-18.7,1.31-28-.58-1.28-.26-2.86-.07-3.34-1.57-.54-1.71,1.12-2.11,2.14-2.88,14.15-10.76,26-23.63,36.46-38.14,8.05-11.19,15.71-22.66,21-35.24,4.48-10.67,9.82-21.24,11.56-33,.23-1.6.71-3.1-1-3.84-2.08-.87-2.93.8-3.66,2.35a186.4,186.4,0,0,1-23.48,37.21c-12.46,15.55-27.18,28.19-46.66,34.16a188.2,188.2,0,0,1-29.13,6.08c-6.73.95-13.32,3.71-18,8.62-8.54,9-19.21,13.76-30.33,17.9a81.6,81.6,0,0,1-33.66,5.4c-7.55-.45-9.47-3.14-6.23-10,7.86-16.75,22-24.13,39.25-27.19,13.06-2.32,26.37-2.86,39.28-6a48.11,48.11,0,0,0,12.34-4.93c5.12-2.91,8-11.06,6.76-18-.27-1.47-.55-2.93-.87-4.39-1-4.44-3.64-6-8-4.54-11.15,3.86-22,8.49-33.26,12.12-12.37,4-24.74,6.56-37.67,4-8.55-1.73-13.71-8-16.51-15.47a64.55,64.55,0,0,1-3.65-14.4c-.87-7,1.18-12.68,5.43-17.84a54.27,54.27,0,0,1,4.87-5c7.67-7.1,9.65-15.53,5.22-25-1.09-2.35-.95-3.57.8-5,9-7.54,11.71-18.6,15.48-29,3.23-8.87,6.42-17.37,15.91-21.42,3.55-1.51,1.79-4.69.57-6.34-5.95-8.08-5.32-16.92-3.89-26.06.83-5.27,1.28-10.7-1.24-15.66-2.06-4.07.2-4.11,3.06-3.91,9.13.63,17.43,8.24,20.33,18.54,1.56,5.56,3.22,11.09,4.89,16.62a17.39,17.39,0,0,0,4.34,7.71c2.28,2.22,4.77,2.15,7.21.69s3.39-3.33,2.93-6.62a70.44,70.44,0,0,1,1.73-28.06,61.61,61.61,0,0,0,1.2-25.22c-.63-4.07.76-3.76,3.59-3.13,13,2.88,23,10.84,32.68,19.32,5,4.36,9.34,9.4,14,14.06,3,3,5.26,2.37,6.17-1.75a59.48,59.48,0,0,0-1.24-30c-2.16-7.3-4.68-14.5-9.19-20.78-1.69-2.35-.63-4,1.56-5.25a24.75,24.75,0,0,1,11.78-3.11c10.53-.28,21,1.57,31.52,1.06,8.07-.4,14.59-2.94,18.64-10.62,2.7-5.12,2.65-4.61,6.83-.83a31.24,31.24,0,0,0,26.89,8,40.37,40.37,0,0,0,16.07-5.81c2.42-1.56,4.17-1.23,5.14,2,3.9,12.92,13.57,22,28.87,21.31,6.26-.26,12.48-.36,18.47-2.28,2.67-.86,3.35.14,3.1,2.49-.3,2.8-.77,5.58-1.13,8.37-2.16,16.92,3.89,30.35,16.6,41.27a41.09,41.09,0,0,0,14.18,7.61c3.68,1.21,4.41,3,3.88,6.1-1.12,6.44-1,12.92-.93,19.4a269.76,269.76,0,0,0,4.45,45.42,359.93,359.93,0,0,0,17,63.09c3.65,9.77,8.81,18.79,13.6,28,1.31,2.52,1.58,4.13.1,6.73-3.9,6.85-8.25,13.48-10.75,21.12-4.93,15.08-1.91,25.32,10.64,34.86,1.31,1,2.5,2.15,3.73,3.26,3.07,2.76,8.3,4.56,7.27,9.64-1.43,7-5.23,12.81-12.76,14.92-5,1.4-10.07,2.74-15,4.32-6.84,2.17-10.08,7.77-8,14.84,2.26,7.77,6,14.61,13.51,18.78,10.71,6,17.9,15.42,23.68,26a113.45,113.45,0,0,1,11.16,30.15c1,4.72,3.26,4.85,8.7,2.42,10.62-4.72,18.25-12.63,24.51-22.15a37.67,37.67,0,0,0,5.81-20.3c.37-22.17,8.13-41.54,19.88-59.86,12-18.78,27.6-34.54,41.47-51.75,5.6-7,11.09-14,14.55-22.33,2.58-6.18,2-12.85.11-19.11-2.86-9.38-3.95-19.07-5.63-28.65q-3.77-21.5-6.63-43.15c-1.43-10.66-2.3-21.4-3.33-32.11-1.61-16.64-3.11-33.29-4.73-49.93-.44-4.56,2.46-3.77,4.67-2.76,8,3.67,16.13,7.34,23.89,11.58,12.82,7,25.64,14,37.86,22.07a622.39,622.39,0,0,1,52.14,38.1c12.79,10.46,24.92,21.62,36.86,33,10.15,9.66,19.46,20.28,28.64,30.91a453.09,453.09,0,0,1,34.58,45.87c9.08,13.72,17.89,27.67,25.14,42.53,5.15,10.55,10.76,20.86,15.16,31.78,5.35,13.29,10.6,26.58,14.89,40.3,5,16.07,9.92,32.16,13.12,48.69,2.68,13.8,4.76,27.7,6.71,41.64a459.14,459.14,0,0,1,4.28,74.94c-.47,19.12-1,38.36-4.11,57.47-2,12-3.66,24.22-5.75,36.24-1.61,9.34-3.42,18.8-6.64,27.89-2.25,6.36-3.57,13.09-5.26,19.65-2.85,11.12-7.46,21.56-11.31,32.28a384,384,0,0,1-20.25,45.84c-5.88,11.43-12,22.62-18.51,33.7a498.39,498.39,0,0,1-27.86,42c-9,12.25-18.11,24.32-28.37,35.5-7.71,8.4-15.07,17.16-23.1,25.23-21.45,21.55-43.93,41.93-68.68,59.6-1.15.82-2.26,2.58-3.71,1-1.14-1.26.28-2.36,1.06-3.41,12.31-16.54,21.45-34.79,29.08-54,7.07-17.79,11.37-36.29,14.4-55,1.78-11,2.07-22.3,1.89-33.62-.11-6.73-.48-13.51-.57-20.27-.16-11.63-2.63-23-5-34.33-2.23-10.53-4.09-21.14-8.33-31.12a2.38,2.38,0,0,1,.47-2.76c1-1,2-.72,3.16-.24,8.29,3.4,14.61,9.52,20.42,16a137.94,137.94,0,0,1,20.43,30.77c1.55,3.1,3.77,3.08,5.34-.14a26.32,26.32,0,0,0,2.13-7.11c2.71-16,6-31.78,8.33-47.83,1.31-9.28,2.65-18.65,4.37-27.92,1.94-10.39,2.91-21,4.12-31.49,1.15-9.87,2.68-19.68,3.23-29.64.53-9.74,1.41-19.49,2.8-29.15,1.64-11.4,1.06-22.9,1.38-34.29.2-7.26.25-14.82.13-22.18-.18-11.25-.26-22.59-.9-33.78a253.27,253.27,0,0,0-8.4-53.86,194.25,194.25,0,0,0-10.69-28.16c-.62-1.36-1.3-2.91-3.18-2.54-1.58.3-2.42,1.53-2.95,3a215,215,0,0,1-20.82,42.17,150.74,150.74,0,0,1-19.9,25.24c-2.34,2.41-4.18,2.68-7.24.84-14.66-8.84-29.06-18-42.14-29.19a14.68,14.68,0,0,1-3.1-3.2c-1.56-2.54-1.51-4.81,2-5.61,8.19-1.88,11.55-8.07,14.22-15.37,2.6-7.09,5-14.34,9.33-20.69a20.25,20.25,0,0,1,8.9-7.56c3.41-1.45,3.83-3.21.94-5.77-7.87-7-15.54-6.81-24.4-.68a49.15,49.15,0,0,0-20.77,30.14c-.67,2.83-2.6,2.81-4.54,1.51a94.31,94.31,0,0,1-24.41-24.26c-1.39-2-.49-3.88.78-5.93,3.14-5.11,5.78-10.42,3.6-16.83-1.47-4.31-3.56-5.19-6.52-1.92-6.22,6.85-14,9.94-22.94,10.9-6.81.74-8.58,2.74-9,11.54-.48,10.16,1.22,20.12,3.19,30.07a103.19,103.19,0,0,0,8.36,24.85c7.69,16,16.76,31,28.94,44a111,111,0,0,1,24,39.6c5.54,15.69,7.58,31.72,7.79,48.32.23,17.52-.54,35-4.53,51.92-3.67,15.54-7.86,31.06-14.65,45.76-5.62,12.18-10.87,24.54-18.12,35.8-10.5,16.32-22.72,31.13-38,43.23a119.68,119.68,0,0,1-29.92,17.14c-6.22,2.49-12.79,2.74-19.12,4.39-2.71.7-2.08-1.19-1.37-2.65,2-4.19,3.89-8.48,6.21-12.5,9.27-16.07,17.17-32.64,21.93-50.8,2.92-11.1,5.68-22.28,5.85-33.58.14-9.33.53-18.93-1.56-28.26-3.11-13.89-5.87-27.85-11.52-41-5.19-12.13-10.46-24-18-35.07-7.88-11.55-15.73-22.93-25.88-32.59a140.85,140.85,0,0,0-39.6-26.25c-26.37-12-54.11-15.54-82.48-13.7-24.74,1.61-49,6.66-71.3,18.22-5,2.57-6.6,1.66-9.08-2.11-4.57-6.92-11-11.75-18.18-15.54-4.77-2.51-8.51-6.23-12.1-10.12-5.16-5.57-5.43-12.42-4.77-19.47.12-1.32.45-2.61.55-3.92a2.74,2.74,0,0,0-1.49-2.92c-1.22-.58-2.21,0-3.09.89a233.26,233.26,0,0,0-18.1,19.73c-10,12.44-17.16,26.59-23.77,41-1.62,3.52-2.68,7.37-4.75,10.75-5,8.18-10.78,11.26-19.58,7.43-11.37-4.94-23.59-4.79-35.78-3.41-7.34.83-14.77-.25-22.12,1.19-10.26,2-20.68,1.4-31,.91-12.33-.59-24-3.95-34.26-11.42-.8-.58-1.64-1.11-2.48-1.64-3.79-2.41-5.86-1.43-6,3.09-.16,6-.06,12,0,18A79.65,79.65,0,0,1,706,1039c-1.92,4.4-4.91,7.87-8.92,9.52-18.43,7.58-37.2,10.78-56.21,1.94a30.86,30.86,0,0,1-9-6.8c-2.12-2.21-1.32-3.73,1.44-3.93a61.53,61.53,0,0,0,26.64-8c15.74-9.09,17.14-23.35,6-37.12-3.19-3.93-9.56-3.63-14.44-3.73-21.21-.44-35.84,6.92-46.88,26.64C601.8,1022.48,599.78,1037.46,599.78,1050.67Zm891.78-94.94c-1-11.6-2.56-25.62-3.39-39.67-.94-15.95-4.06-31.54-7.12-47.1a392.57,392.57,0,0,0-12.11-46.62c-8.73-26.61-19.19-52.46-32.74-77-9.27-16.82-18.72-33.49-30.3-48.81-8.45-11.18-16.66-22.59-25.75-33.22a466.69,466.69,0,0,0-38.73-40.45c-4.62-4.24-9.44-8.25-14-12.51-10.41-9.68-22.11-17.71-32.87-26.93-1.15-1-2.23-2.26-3.84-1.06-1.43,1.07-1.08,2.6-.68,4.11,2.91,11,6.19,21.88,7.14,33.36.77,9.25,3,18.56,2,27.73-1.4,12.12-1.84,24.33-4.32,36.41-2.79,13.6-4.93,27.29-10.18,40.24-.66,1.63-1.54,3.43.17,5.09s3.59,1.46,5.53.81c8-2.72,14.28-8,19.76-14.3,9.1-10.44,15.44-22.53,20.51-35.38,1.26-3.21,3.12-3.44,5.62-1.08,2.75,2.61,5.62,5.11,8.55,7.51a299.87,299.87,0,0,1,47.25,48.5,339.89,339.89,0,0,1,37.16,60.83A386.69,386.69,0,0,1,1452,856.48c2.48,8.55,4.68,17.2,6.48,25.92,3.09,14.91,5.34,30,7.47,45.06,2.6,18.47,3.42,37,4.3,55.51a351,351,0,0,1-.92,51.37c-.72,7.3-.27,14.65-1.14,21.89-2,16.92-4,33.85-6.56,50.7-3.05,19.69-7.22,39.11-12.1,58.39-.77,3-1.51,5.73,2.31,6.78,3.45,1,5-1.26,6-4.25a507.33,507.33,0,0,0,16.37-54.11c4.59-19.29,8.2-38.79,11.16-58.44,2.68-17.75,3.4-35.63,5.47-53.4C1492.59,987.37,1490.37,972.72,1491.56,955.73Zm-704.8-347c-1.15,5,1.84,6.67,5.77,7.68,11.91,3.06,24.15,2.54,36.19,2.48,16.66-.1,33.33-1.58,49.94-3.36,2-.21,3.83-.61,4.13-2.72.27-1.86-1.73-2.27-3-2.73-12-4.25-16.08-15.27-21.06-25.45-.69-1.42-.35-3.4-2.47-3.75s-3.43.91-4.17,2.74c-3.08,7.55-9.09,12.13-16,15.33-3.74,1.72-7.68,2.49-12-.39a81,81,0,0,1-15.76-13.39c-2.5-2.8-4.84-2.72-7.79-.87C791.39,590,787.82,598.69,786.76,608.72Z" transform="translate(-43.81 -34.12)"/><path class="cls-2" d="M979.27,1210.58c-13.49,1.68-26.85-2-39.47-7.59-14.55-6.39-27.79-15.23-36.13-29.55-5.07-8.72-8.26-18.37-11.5-28-3.46-10.2-3.92-20.9-4.43-31.32a112,112,0,0,1,3.64-36.26c2.55-9,5.29-17.78,10-25.72,8.93-14.9,20.5-27.49,33.93-38.43a169.78,169.78,0,0,1,32.75-20.84c11.17-5.48,23.14-8.91,35.35-11.23,8.68-1.65,17.38-3.5,26.3-3,21.08,1.15,41.37,5.24,60.7,14.46a175.19,175.19,0,0,1,51.89,37.1,129.9,129.9,0,0,1,22.39,32.43c10.07,20.28,13.82,41.79,12.94,64.08-.63,16.07-4.24,31.75-9.14,47.14a159.37,159.37,0,0,1-24.5,47.92c-6.57,8.72-14.78,16.11-22.86,23.45a193.75,193.75,0,0,1-27.74,21.23,201.75,201.75,0,0,1-32.36,16.47c-14.72,5.82-29.86,10.11-45.56,11.46a202.81,202.81,0,0,1-39.18-.41,337.22,337.22,0,0,1-41.48-7.39c-12.73-3-25.52-5.79-38.16-9.28-10.35-2.85-20.93-5.19-31.29-8-15.62-4.21-31.27-8.43-46.8-13-14-4.13-28.21-7.34-42.4-10.64-9.26-2.15-18.47-4.5-28.12-4.09-3.93.16-7.81,0-8.89,4.93-.57,2.64,3.86,7.78,7.39,9,6.12,2.18,12.72,3.16,18,7.48.87.73,2.05,1.38,1.88,2.72-.22,1.72-1.73,1.6-3,1.93-11.37,2.91-21,9.09-30.07,16.38a87.32,87.32,0,0,0-26.72,36.9,84.15,84.15,0,0,0-4.77,44.4c2.14,13.18,5.37,26,10.92,38a213,213,0,0,0,18.07,32.38,20,20,0,0,1,1.42,2c.51,1,1.45,2.07.42,3.17-.86.92-1.9.09-2.74-.24-11.43-4.47-23-8.64-33.94-14.32-13.72-7.11-26.74-15.25-38.46-25.43a165.08,165.08,0,0,1-31.3-35.58c-11-17.2-18.85-35.83-24.65-55.4-4.93-16.62-9.4-33.39-15-49.79-4.07-12-8.77-24-17.89-33.39-1.42-1.46-3.14-3.13.44-4.27,16.4-5.24,33.06-6.61,49.93-3a42.17,42.17,0,0,1,11.94,4.33c4.08,2.34,6.48,1.56,9.11-2a76.3,76.3,0,0,1,18.79-18c11.14-7.64,23.61-12.16,36.45-14.85,23.28-4.86,46.84-4.65,70.5-1.78a540.11,540.11,0,0,1,54.14,9.39c14,3.16,27.78,7,41.51,11.23,8.74,2.67,17.43,5.54,26.17,8.19,13.91,4.23,27.45,9.68,41.17,14.52a133.76,133.76,0,0,0,31,7.2c15.75,1.62,31.15-.42,46.29-3.57a112.89,112.89,0,0,0,36.88-14.53c8.16-5.08,15.92-10.47,22.27-17.77a77.46,77.46,0,0,0,18.87-40.71c2.08-14.32,1.27-28.12-3.35-41.54-6.1-17.73-16.54-32.11-35.71-36.42-20.17-4.54-34.33,8.73-37.23,28.48-1,7-1.25,13.74,1.3,20.56,4,10.67,11.25,18.05,21.14,23.06,1.61.81,3.28,1.84,5,2,6.81.78,7,5.1,6.21,10.52q-3,20.67-19.94,32.3C1009,1208.85,994.92,1211.71,979.27,1210.58Z" transform="translate(-43.81 -34.12)"/><path class="cls-2" d="M981.13,1694.42c.88-12.47-5.64-17.37-17.65-18.71-5.59-.62-6.13-1.21-5.35-6.68a10,10,0,0,0,0-2.94c-.82-5.32.8-7.07,5.85-6.38,17,2.31,34,4.56,51,6.92,3.73.51,7.41,1.35,11.1,2.06,2,.38,3.07,1.69,2.17,3.56a20.43,20.43,0,0,0-1.65,8.22c-.13,2.64-1.25,4.25-4.49,3.62-2.71-.54-5.57-.2-8.35-.42-8.32-.66-11.37,3.18-12.6,11.39-2.06,13.73-3.64,27.56-5.46,41.33-1.36,10.28-2.9,20.63-4.59,30.91-2,12.07-3.27,24.26-4.94,36.38-1.74,12.62-3.59,25.21-5.33,37.83-.62,4.42-1,8.89-1.63,13.3-.51,3.31-1.71,5.59-6,4.15-2.89-1-6.12-1.07-9.22-1.22-2.18-.11-3.19-1.35-4.15-3-6.72-11.54-13.42-23.08-20.2-34.58-4.1-7-8.31-13.84-12.53-20.73s-7.66-13.79-11.83-20.52c-8.33-13.42-16.11-27.2-24.1-40.84q-10.91-18.6-21.76-37.24c-1-1.66-1.85-3.43-4-2.81-1.91.54-2.51,2.23-2.78,4.26-2.51,18.85-5.6,37.64-7.58,56.54-1.72,16.31-5.71,32.33-6.15,48.74-.39,14,5.83,17.16,16.83,18.82,4.84.73,5.26,2.91,4.77,6.6-1.24,9.2-1.29,9.53-10.12,8.64-11.87-1.2-23.66-3.16-35.52-4.42-5.55-.58-11-1.8-16.47-2.4-3.26-.36-4.49-1.66-4.06-4.73a79.16,79.16,0,0,1,1.48-8.3c.47-1.83,1.48-3.15,3.89-2.92,13.68,1.29,19-3.84,20.35-18.06,1.32-13.65,3.75-27.18,5.17-40.82,1.27-12.19,3.37-24.26,5-36.38,1.58-11.94,2.82-24,5-35.85a123.08,123.08,0,0,0,2.31-17.69c.14-4-1.12-8-5.88-9.29-3.45-.93-6.31-3.58-10.24-3.28-1.73.13-2.64-1.49-2.07-3.19.92-2.79.67-5.62.62-8.42-.06-3.75,2-4.64,5.07-4.2,16.16,2.3,32.32,4.65,48.49,7a5.18,5.18,0,0,1,3.8,2.84c5.36,8.9,10.7,17.8,16.1,26.67,4.09,6.72,8.53,13.33,12.13,20.23,6.68,12.78,14.78,24.64,21.78,37.19,8.27,14.85,17.11,29.37,25.79,44,.89,1.49,2.1,3.34,4.25,2.81s2.72-2.42,3-4.6c2.92-23.15,5.85-46.29,9-69.4C980,1703.61,981.58,1699,981.13,1694.42Z" transform="translate(-43.81 -34.12)"/><path class="cls-2" d="M585,715.62c-1.24-19.21,8.93-31.07,22.44-40.84,10-7.25,21.24-12.26,32.87-16.27,6.05-2.08,8.36-7.62,10.46-12.62,8.69-20.74.08-40.6-19.92-50-6.18-2.9-12.85-3.49-19.31-5.08-2.7-.67-3.39-1.37-1.25-3.25,7.76-6.84,16.06-12.22,26.89-13.1,17.47-1.41,30.73,6.8,42.94,17.87a150.59,150.59,0,0,1,18.26,19.43c1,1.35,2.22,3.28,4.39,2.55s2.51-2.65,2.78-4.8c1-8.1,1.51-16.14,0-24.27-1.95-10.79-7.63-18.44-17.51-23-1.42-.65-3.7-.85-3.8-2.69-.12-2.34,2.39-1.64,3.76-2.27a35.67,35.67,0,0,1,22.89-2.81c9.44,2,14.56,8.79,18.36,17,5.56,12,7.44,25.06,8.39,38,.8,10.91,1.49,22.29-1.22,33-2.12,8.4-6.65,16.16-9.31,24.53-3.3,10.42-6.52,20.82-6.79,31.91-.18,7.17,2,13.5,4.74,20,3.48,8.37,6.7,16.85,10.75,25,5.69,11.39,11.32,22.82,17.16,34.13q9.76,18.95,19.86,37.7c8.55,15.86,17.16,31.69,26,47.37,1.54,2.75,1.35,4.18-.65,6.4-13.84,15.41-30.63,26.32-49.73,33.75-1.77.69-4.33,1.47-5.64.69-1.93-1.14-.12-3.56,0-5.46.58-12.95.53-25.85-4.66-38.1-4.26-10.06-13.09-15-22-19.56-9.36-4.83-17.16-10.7-20-21.72-.74-2.82,1-6.48-2.67-8.58-3-1.75-5.78.16-8.65.22-8.89.19-17.91.46-26.51-1.37a61,61,0,0,1-26.74-13c-8.78-7.4-14.76-16.82-19.26-27.31-1.37-3.18.1-4.52,3.05-4.35a60,60,0,0,0,22.78-3.19c7.07-2.41,14.51-4.19,20.25-9.66,6.45-6.17,8.57-13.36,4.83-21.62-4.31-9.56-9.74-18.36-18.66-24.43-9.23-6.3-22.06-3.14-27.83,3.24-8.26,9.12-15.34,19-20,30.52-.71,1.75-1,4.55-3.11,4.58s-2.75-2.69-3.52-4.38C586.49,731.85,583.89,723.65,585,715.62Z" transform="translate(-43.81 -34.12)"/><path class="cls-2" d="M1408.16,1715.35c-.14-7.06-.47-12.5-2.56-17.65-.67-1.65-.4-3,1.12-3.85a67.66,67.66,0,0,1,6.9-3.85c2.58-1.15,4.18,0,5.28,2.65,5.57,13.59,11.21,27.14,17,40.61,1.12,2.59.87,4-1.56,5.18q-15.12,7.63-30.19,15.39-21.68,11.13-43.33,22.31c-11.5,5.9-23,11.69-34.53,17.65-5.81,3-11.52,6.24-17.23,9.43-3,1.68-6.58,1.87-9.43,4.12a2.49,2.49,0,0,1-4-1.54c-.78-4.41-6.25-7.69-3.82-12.46,1-2,4.76-2.55,7.25-3.79,8.84-4.37,12.95-9.93,12.18-18.88-.31-3.58-2.38-6.18-3.77-9.07-6-12.52-12.5-24.79-18.66-37.23-5.63-11.39-10.93-22.95-16.61-34.32-5.08-10.18-10.45-20.22-15.75-30.29-2.9-5.5-4.72-11.62-9.72-15.91a13.79,13.79,0,0,0-14.55-2.19c-9.55,4.22-9.27,4-14.76-5.05-2.63-4.36-1.54-5.55,2.58-7.55,13.55-6.56,26.81-13.75,40.23-20.6,18.7-9.55,37.56-18.79,56.12-28.62,7.68-4.07,15.85-7.18,23-12.18,2.25-1.56,4.56-1.93,6.24,1q8.52,15.12,17.11,30.22c5.25,9.23,5.26,9.18-3.92,14-2.35,1.23-3.81.82-5.35-1.42a111.26,111.26,0,0,0-8.46-11c-3.83-4.3-8.49-5.74-14.23-3.73-7.95,2.77-14.95,7.46-22.53,11-7.24,3.37-14.17,7.43-21.27,11.14-5,2.59-5,3.47-2.41,8.38,5.11,9.82,9.78,19.87,14.78,29.76,3.19,6.32,6.57,12.54,10,18.74,1.47,2.67,3.88,2.26,6,1.14,11.5-6,23.12-11.75,34.38-18.17,6.59-3.76,7.62-13.6,2.57-20.77-2.22-3.15-1.69-4.25,1.69-5.72,10.7-4.64,10.34-4.64,15.32,6,6.89,14.67,14.23,29.12,21.53,43.59,1.61,3.2,1.84,5.34-2.21,6.2-.16,0-.31.18-.46.18-3.18,0-5,5.23-8.25,2.91-2.4-1.7-3.75-4.91-5.56-7.45-4.78-6.69-9.59-7.93-17.1-4.27-10.46,5.11-20.88,10.29-31.32,15.45-4.61,2.28-5.38,4.72-3,9.53q10.32,20.86,20.66,41.71a32.81,32.81,0,0,0,2.32,3.81c4.5,6.6,6.36,7,13.49,3.3,11.47-6,23-11.78,34.4-18C1402.24,1730.69,1409.9,1725.35,1408.16,1715.35Z" transform="translate(-43.81 -34.12)"/><path class="cls-2" d="M504.93,339.27a143.88,143.88,0,0,0,7.38,20.29q1.19,2.74,2.19,5.55c.54,1.51.61,3.18-.91,4a40.58,40.58,0,0,0-7.47,5.64c-1.82,1.66-3.07.67-4.18-1.35Q488.05,348,474,322.79c-.7-1.27-1.22-3.09-.2-3.67,3.52-2,5.94-6.89,11-5.07,2.74,1,4.9.05,7-1.32,13.4-8.91,26.72-17.92,40.11-26.84,9.57-6.37,19.39-12.39,28.76-19.05,14.6-10.38,30.55-18.77,44.07-30.72a13.7,13.7,0,0,0,4.26-6.45c1.2-3.81,4.94-5.64,8.61-6.84,1.68-.56,2.67.93,3.58,2.12l34.5,44.65c.6.78,1.7,1.57,1.07,2.56-2.31,3.63-6.05,5.64-9.73,7.31-2.9,1.31-4.36-1.48-6.26-3.47-6-6.26-11.16-13.62-19.65-17-5.74-2.29-10.82.06-15.35,2.87-8.37,5.2-16.28,11.17-24.47,16.68-3.27,2.2-2.57,4.86-1,7.33,6.92,10.66,14.06,21.17,21,31.81,9.84,15,19.53,30.18,29.4,45.19,9.7,14.75,19.34,29.54,29.4,44,4.78,6.88,12.29,7.93,20.41,3.82,2.79-1.41,5.89-2.65,8-4.81,3.34-3.39,5.18-1.32,7,1.2s3.3,5.36,5.07,7.95c1.61,2.35-.1,3.36-1.58,4.34-17,11.17-34,22.2-51,33.45-9,6-17.85,12.24-26.63,18.56-2.11,1.51-3.67,1.46-5-.46A92.67,92.67,0,0,1,610,461c-1.11-2.08.95-3.24,2.42-4.29,2.78-2,6-3.25,8.45-5.85,7.68-8,8.14-15,2.12-24.29-13.67-21-27.81-41.76-41.2-63-10.9-17.31-22.67-34.07-34-51.1-.72-1.08-1-2.46-1.83-3.46-2.08-2.57-4.65-4.89-7.89-2.14-7.83,6.63-16.9,11.43-25,17.64C508.43,328,505.14,332,504.93,339.27Z" transform="translate(-43.81 -34.12)"/><path class="cls-2" d="M360.58,1053.45c.21,11.08-2.75,19.93-4.67,29-1,4.54-2,9-3,13.57a5.07,5.07,0,0,0,2,5.31,9.92,9.92,0,0,1,3.36,5.36c1.37,5.13.2,7-5,7.92-17.4,2.91-34.81,5.78-52.2,8.8-3.32.58-4.69-.5-4.59-3.8,0-.67,0-1.33,0-2-.11-8.8.78-8.92,8.91-12.08,15.14-5.89,28.88-14,34.53-30.89,6.09-18.15-3.11-39.23-26.22-40.62-11.78-.71-21.55,5.59-28.63,15-8.11,10.84-14.52,22.77-20.91,34.74-7,13-15.07,25.59-27.77,33.68-14.81,9.42-31,11.83-48.1,7.3a47.08,47.08,0,0,1-28.95-21.61,64,64,0,0,1-9.16-30.09c-.72-12.66,1.67-24.78,5.26-36.75.87-2.9.94-5.51-.52-8.16a16.15,16.15,0,0,1-1.47-3.16c-1.57-5.32-.09-7.31,5.2-8.51,14.71-3.3,29.74-4.6,44.5-7.53,2.66-.53,4.66-.36,4.53,3.15a6.44,6.44,0,0,0,.33,1.45c1.76,8.53.13,10.36-8,13.23-13.11,4.64-23.1,13.15-29.09,26.25a29.21,29.21,0,0,0,.32,26.3c7.25,14.92,20.53,15.88,32,6.18,9.22-7.82,13.78-18.91,19.61-29.06a273.88,273.88,0,0,1,25.14-37.29,66.22,66.22,0,0,1,25.86-19.27,64.6,64.6,0,0,1,33.7-4.71c9.71,1.25,19.24,3.34,27.06,9.44,10.8,8.43,19.34,18.7,23.34,32.46C359.63,1043.07,360,1049.07,360.58,1053.45Z" transform="translate(-43.81 -34.12)"/></svg>