<?xml version="1.0" standalone="no"?>
<!DOCTYPE svg PUBLIC "-//W3C//DTD SVG 20010904//EN"
 "http://www.w3.org/TR/2001/REC-SVG-20010904/DTD/svg10.dtd">
<svg version="1.0" xmlns="http://www.w3.org/2000/svg"
 width="700.000000pt" height="700.000000pt" viewBox="0 0 700.000000 700.000000"
 preserveAspectRatio="xMidYMid meet">
<metadata>
Created by potrace 1.11, written by Peter Selinger 2001-2013
</metadata>
<g transform="translate(0.000000,700.000000) scale(0.100000,-0.100000)"
fill="#000000" stroke="none">
<path d="M3278 6995 c-2 -1 -41 -5 -88 -9 -87 -7 -105 -9 -225 -27 -116 -18
-123 -19 -192 -35 -184 -42 -248 -59 -369 -99 -264 -88 -538 -216 -759 -356
-346 -217 -655 -497 -910 -824 -238 -304 -432 -668 -559 -1047 -31 -94 -79
-267 -91 -329 -3 -13 -11 -58 -20 -99 -29 -147 -36 -200 -52 -370 -15 -165 -8
-592 12 -711 2 -13 6 -46 9 -74 9 -78 23 -156 51 -285 30 -141 110 -393 173
-551 50 -125 156 -337 226 -453 36 -60 66 -113 66 -117 0 -4 3 -9 8 -11 4 -2
29 -36 57 -77 27 -41 68 -99 92 -130 105 -138 146 -186 289 -333 183 -188 350
-327 571 -474 77 -52 145 -94 149 -94 4 0 15 -6 23 -14 27 -23 260 -140 392
-196 281 -120 597 -208 874 -245 22 -2 56 -7 75 -10 185 -26 698 -27 838 0 16
3 104 15 147 20 123 16 396 85 572 146 214 74 511 210 623 285 19 13 38 24 43
24 4 0 13 5 20 10 7 6 62 44 124 84 245 163 499 384 676 591 33 39 63 72 66
75 5 4 54 65 83 105 4 6 18 24 31 40 142 181 329 510 432 760 48 115 120 327
146 430 20 78 24 91 34 138 14 60 55 299 60 352 4 33 9 71 11 85 9 48 11 525
4 605 -17 172 -22 220 -25 225 -2 3 -6 30 -10 60 -9 75 -69 337 -98 435 -232
761 -691 1402 -1331 1858 -71 50 -137 96 -147 102 -227 132 -479 265 -503 265
-4 0 -31 11 -59 24 -163 74 -561 185 -757 211 -19 3 -46 7 -60 10 -13 2 -52 7
-86 11 -33 3 -74 8 -90 10 -32 5 -540 14 -546 9z"/>
</g>
</svg>
